<svg xmlns="http://www.w3.org/2000/svg" viewBox="20 73 280 250" width="350" height="330">
  <g id="airship">
    <animate id="airshipWindowOpacityEnd" attributeType="CSS" attributeName="opacity" dur="0.5s" begin="2.3s" from="1"
             to="0" fill="freeze" />
    <!--  airshipBody    -->
    <g id="airshipBody">
      <g>
        <g id="airshipWing">
          <animateTransform attributeName="transform" type="skewY" values="0; 1; 0; -1; 0" dur="3s" calcMode="linear"
                            repeatCount="indefinite" />
          <path
            d="M175.44,249.28h48.36a13.27,13.27,0,0,0,13-10.65l3.74-18.32H172.36v25.89A3.09,3.09,0,0,0,175.44,249.28Z"
            fill="none" stroke="#fff" stroke-linecap="round" stroke-linejoin="round" stroke-width="2" />
          <path d="M235.79,241.69h-9.22a8.31,8.31,0,0,1-8.28-8.31V220.31" fill="none" stroke="#fff"
                stroke-linecap="round" stroke-miterlimit="10" stroke-width="2" />

          <!--     airship window       -->

          <g id="airshipWindow">
            <path
              d="M204.250000,231.880000L202.200000,231.880000C200.302433,231.891001,198.769968,233.432401,198.770000,235.330000L198.770000,238.250000C198.769968,240.147599,200.302433,241.688999,202.200000,241.700000L204.250000,241.700000C206.147567,241.688999,207.680032,240.147599,207.680000,238.250000L207.680000,235.330000C207.682656,234.417654,207.322773,233.541621,206.679523,232.894619C206.036272,232.247618,205.162346,231.882648,204.250000,231.880000Z"
              fill="none" stroke="#fff" stroke-linecap="round" stroke-linejoin="round" stroke-width="2">

              <animate attributeType="CSS" attributeName="opacity" dur="2s" begin="secondСloudTransform.end - 3s"
                       from="1" to="0" fill="freeze" />
            </path>
          </g>
          <path
            d="M185.64,231.88h-2.05a3.45,3.45,0,0,0-3.43,3.45v2.92a3.45,3.45,0,0,0,3.43,3.45h2.05a3.45,3.45,0,0,0,3.43-3.45v-2.92A3.45,3.45,0,0,0,185.64,231.88Z"
            fill="none" stroke="#fff" stroke-linecap="round" stroke-linejoin="round" stroke-width="2" />
        </g>
        <path
          d="M205,227.08c43.38,0,74.86-15.55,74.86-37s-31.48-37-74.86-37c-27.94,0-55.36,13.53-73.46,24.87a14.3,14.3,0,0,0,0,24.21c18.09,11.33,45.52,24.87,73.46,24.87"
          fill="#068e4d" />
        <path
          d="M205,227.08c43.38,0,74.86-15.55,74.86-37s-31.48-37-74.86-37c-27.94,0-55.36,13.53-73.46,24.87a14.3,14.3,0,0,0,0,24.21C149.63,213.54,177.06,227.08,205,227.08Z"
          fill="none" stroke="#fff" stroke-width="2" />
        <path
          d="M205,176.09c-28.23,0-56.07,5.76-72.81,10-3.95,1-6,2.66-6.08,4.34A12.93,12.93,0,0,1,132.18,179c16.74-10.5,44.58-24.68,72.81-24.68,44.81,0,73.64,16,73.64,35.75,0,0.12,0,.24,0,0.37-0.37-7.95-29.1-14.37-73.63-14.37"
          fill="#36e69a" />
        <path
          d="M132.18,195.12c16.74,4.27,44.58,10,72.81,10,44.14,0,72.75-6.32,73.6-14.18-0.86,19.34-29.45,34.86-73.6,34.86-28.23,0-56.07-14.19-72.81-24.68a12.88,12.88,0,0,1-6-10.18c0.26,1.61,2.26,3.18,6,4.14"
          fill="#068e4d" />
        <!--    lines in the center    -->
        <path
          d="M132.180000,186.120000C148.920000,181.850000,176.760000,176.120000,204.990000,176.120000C249.520000,176.120000,278.250000,182.550000,278.600000,190.500000C278.600000,190.670000,278.600000,190.840000,278.600000,191.010000C277.750000,198.870000,249.150000,205.180000,205,205.180000C176.770000,205.180000,148.930000,199.420000,132.190000,195.180000C128.400000,194.180000,126.400000,192.650000,126.190000,191.050000L126.190000,190.540000C126.320000,188.850000,128.340000,187.180000,132.290000,186.170000"
          fill="#25b774">
          <animate attributeName="d"
                   values="M132.180000,186.120000C148.920000,181.850000,176.760000,176.120000,204.990000,176.120000C249.520000,176.120000,278.250000,182.550000,278.600000,190.500000C278.600000,190.670000,278.600000,190.840000,278.600000,191.010000C277.750000,198.870000,249.150000,205.180000,205,205.180000C176.770000,205.180000,148.930000,199.420000,132.190000,195.180000C128.400000,194.180000,126.400000,192.650000,126.190000,191.050000L126.190000,190.540000C126.320000,188.850000,128.340000,187.180000,132.290000,186.170000; M132.180000,183.450426C148.920000,179.134688,176.760000,173.343311,204.990000,173.343311C249.520000,173.343311,278.250000,179.842186,278.600000,187.877343C278.600000,188.049164,278.600000,188.220985,278.600000,188.392806C277.750000,196.336998,249.150000,202.714588,205,202.714588C176.770000,202.714588,148.930000,196.892890,132.190000,192.607473C128.400000,191.596761,126.400000,190.050373,126.190000,188.433234L126.190000,187.917771C126.320000,186.209669,128.340000,184.521780,132.290000,183.500962; M132.180000,186.120000C148.920000,181.850000,176.760000,176.120000,204.990000,176.120000C249.520000,176.120000,278.250000,182.550000,278.600000,190.500000C278.600000,190.670000,278.600000,190.840000,278.600000,191.010000C277.750000,198.870000,249.150000,205.180000,205,205.180000C176.770000,205.180000,148.930000,199.420000,132.190000,195.180000C128.400000,194.180000,126.400000,192.650000,126.190000,191.050000L126.190000,190.540000C126.320000,188.850000,128.340000,187.180000,132.290000,186.170000; M132.180000,186.604624C148.920000,182.067566,176.760000,175.979195,204.990000,175.979195C249.520000,175.979195,278.250000,182.811346,278.600000,191.258562C278.600000,191.439194,278.600000,191.619826,278.600000,191.800458C277.750000,200.152045,249.150000,206.856691,205,206.856691C176.770000,206.856691,148.930000,200.736444,132.190000,196.231262C128.400000,195.168719,126.400000,193.543029,126.190000,191.842960L126.190000,191.301063C126.320000,189.505366,128.340000,187.730919,132.290000,186.657751; M132.180000,186.120000C148.920000,181.850000,176.760000,176.120000,204.990000,176.120000C249.520000,176.120000,278.250000,182.550000,278.600000,190.500000C278.600000,190.670000,278.600000,190.840000,278.600000,191.010000C277.750000,198.870000,249.150000,205.180000,205,205.180000C176.770000,205.180000,148.930000,199.420000,132.190000,195.180000C128.400000,194.180000,126.400000,192.650000,126.190000,191.050000L126.190000,190.540000C126.320000,188.850000,128.340000,187.180000,132.290000,186.170000"
                   dur="3s" calcMode="linear" repeatCount="indefinite" />
        </path>
      </g>
      <!--   airshipTail     -->
      <g id="airshipTail">
        <g id="airshipTailFront">
          <animateTransform attributeName="transform" type="translate" values="0 0; 0 1; 0 0; 0 -1; 0 0" dur="3s"
                            calcMode="linear" repeatCount="indefinite" />
          <g>
            <path
              d="M123.23,173.34h9.16a3.29,3.29,0,0,1,3.29,3.3v5.71a3.29,3.29,0,0,1-3.29,3.3H115.57a1.32,1.32,0,0,1-1.32-1.32v-2a9,9,0,0,1,9-9"
              fill="#068e4d" />
            <path
              d="M123.23,173.34h9.16a3.29,3.29,0,0,1,3.29,3.3v5.71a3.29,3.29,0,0,1-3.29,3.3H115.57a1.32,1.32,0,0,1-1.32-1.32v-2A9,9,0,0,1,123.23,173.34Z"
              fill="none" stroke="#fff" stroke-linecap="round" stroke-linejoin="round" stroke-width="2" />
          </g>
          <g>
            <path
              d="M123.23,207.39h9.16a3.29,3.29,0,0,0,3.29-3.3v-5.71a3.29,3.29,0,0,0-3.29-3.3H115.57a1.32,1.32,0,0,0-1.32,1.32v2a9,9,0,0,0,9,9"
              fill="#068e4d" />
            <path
              d="M123.23,207.39h9.16a3.29,3.29,0,0,0,3.29-3.3v-5.71a3.29,3.29,0,0,0-3.29-3.3H115.57a1.32,1.32,0,0,0-1.32,1.32v2A9,9,0,0,0,123.23,207.39Z"
              fill="none" stroke="#fff" stroke-linecap="round" stroke-linejoin="round" stroke-width="2" />
          </g>
        </g>
        <g id="airshipTailBack">

          <animateTransform attributeName="transform" type="translate" values="0 0; 0 -3; 0 0; 0 3; 0 0" dur="3s"
                            calcMode="linear" repeatCount="indefinite" />
          <g>
            <path
              d="M123.23,207.39h9.16a3.29,3.29,0,0,0,3.29-3.3v-5.71a3.29,3.29,0,0,0-3.29-3.3H115.57a1.32,1.32,0,0,0-1.32,1.32v2a9,9,0,0,0,9,9"
              fill="#068e4d" />
            <path
              d="M123.23,207.39h9.16a3.29,3.29,0,0,0,3.29-3.3v-5.71a3.29,3.29,0,0,0-3.29-3.3H115.57a1.32,1.32,0,0,0-1.32,1.32v2A9,9,0,0,0,123.23,207.39Z"
              fill="none" stroke="#fff" stroke-linecap="round" stroke-linejoin="round" stroke-width="2" />
          </g>
          <g>
            <path
              d="M123.23,173.34h9.16a3.29,3.29,0,0,1,3.29,3.3v5.71a3.29,3.29,0,0,1-3.29,3.3H115.57a1.32,1.32,0,0,1-1.32-1.32v-2a9,9,0,0,1,9-9"
              fill="#068e4d" />
            <path
              d="M123.23,173.34h9.16a3.29,3.29,0,0,1,3.29,3.3v5.71a3.29,3.29,0,0,1-3.29,3.3H115.57a1.32,1.32,0,0,1-1.32-1.32v-2A9,9,0,0,1,123.23,173.34Z"
              fill="none" stroke="#fff" stroke-linecap="round" stroke-linejoin="round" stroke-width="2" />
          </g>
        </g>

      </g>
    </g>
    <!--   airshipFire   -->

    <g id="airshipFire">
      <line x1="106.25" y1="179.49" x2="92.05" y2="179.49" fill="none" stroke="#fff" stroke-linecap="round"
            stroke-miterlimit="10" stroke-width="2">
        <animate attributeType="XML" attributeName="x2" values="92.05; 82.05; 92.05" dur="0.2s"
                 repeatCount="indefinite" />
      </line>
      <line x1="106.25" y1="201.23" x2="92.05" y2="201.23" fill="none" stroke="#fff" stroke-linecap="round"
            stroke-miterlimit="10" stroke-width="2">
        <animate attributeType="XML" attributeName="x2" values="82.05; 92.05" dur="0.2s" repeatCount="indefinite" />
      </line>
      <line x1="106.25" y1="190.98" x2="68.77" y2="190.98" fill="none" stroke="#fff" stroke-linecap="round"
            stroke-miterlimit="10" stroke-width="2">
        <animate attributeType="XML" attributeName="x2" values="74.05; 68.77" dur="0.2s" repeatCount="indefinite" />
      </line>
    </g>


    <!--  firstСloud    -->
    <g id="firstСloud" opacity="0">
      <animate attributeType="CSS" attributeName="opacity" dur="0.7s" from="0" to="1" fill="freeze" />
      <animate attributeType="CSS" attributeName="opacity" dur="1s" begin="1.5s" from="1" to="0" fill="freeze" />
      <line x1="68.95" y1="107.8" x2="131.86" y2="107.8" fill="none" stroke="#fff" stroke-linecap="round"
            stroke-miterlimit="10" stroke-width="2">
        <animateTransform attributeName="transform" type="translate" from="320" to="-20" dur="2.5s" fill="freeze" />
      </line>
      <path d="M41.77,97.54H77.06a12.4,12.4,0,1,1,24.8,0h17.93" fill="none" stroke="#fff" stroke-linecap="round"
            stroke-miterlimit="10" stroke-width="2">
        <animateTransform attributeName="transform" type="translate" from="320" to="0" dur="2.5s" fill="freeze" />
      </path>
    </g>


    <!--   secondСloud   -->

    <g id="secondСloud">
      <g opacity="0">
        <animate attributeType="CSS" attributeName="opacity" begin="1.5s" dur="1s" from="0" to="1" fill="freeze" />
        <animate attributeType="CSS" attributeName="opacity" dur="1s" begin="3s" from="1" to="0" fill="freeze" />
        <g>
          <animateTransform id="secondСloudTransform" attributeName="transform" type="translate" from="320" to="-320"
                            begin="1s" dur="4s" fill="freeze" />
          <line x1="258.96" y1="93.19" x2="298.74" y2="93.19" fill="none" stroke="#fff" stroke-linecap="round"
                stroke-miterlimit="10" stroke-width="2" />
          <path d="M278.75,82.91H251.39a12.4,12.4,0,1,0-24.8,0H208.65" fill="none" stroke="#fff" stroke-linecap="round"
                stroke-miterlimit="10" stroke-width="2" />
          <line x1="287.01" y1="82.91" x2="309.21" y2="82.91" fill="none" stroke="#fff" stroke-linecap="round"
                stroke-miterlimit="10" stroke-width="2" />
        </g>

      </g>

    </g>


    <!--  mountains    -->

    <g>
      <path
        d="M289.940000,327.880000L244.880000,327.880000L212.800000,296.580000C212.095606,295.984670,211.064394,295.984670,210.360000,296.580000L200.160000,306.810000C199.514003,307.368578,198.555997,307.368578,197.910000,306.810000L178.910000,286.640000C178.015260,285.883131,176.704740,285.883131,175.810000,286.640000L149.390000,312.280000C148.745622,312.842909,147.784378,312.842909,147.140000,312.280000L144.510000,309.360000C143.856374,308.761309,142.853626,308.761309,142.200000,309.360000L124.630000,329L80.780000,329"
        fill="none" stroke="#fff" stroke-linecap="round" stroke-miterlimit="10" stroke-width="2">
        <animate attributeName="d" id="mountains"
                 from="M289.940000,327.880000L244.880000,327.880000L212.800000,296.580000C212.095606,295.984670,211.064394,295.984670,210.360000,296.580000L200.160000,306.810000C199.514003,307.368578,198.555997,307.368578,197.910000,306.810000L178.910000,286.640000C178.015260,285.883131,176.704740,285.883131,175.810000,286.640000L149.390000,312.280000C148.745622,312.842909,147.784378,312.842909,147.140000,312.280000L144.510000,309.360000C143.856374,308.761309,142.853626,308.761309,142.200000,309.360000L124.630000,329L80.780000,329"
                 to="M289.940000,328.963427L244.880000,328.963427L212.800000,327.941352C212.095606,327.921912,211.064394,327.921912,210.360000,327.941352L200.160000,328.275404C199.514003,328.293644,198.555997,328.293644,197.910000,328.275404L178.910000,327.616770C178.015260,327.592055,176.704740,327.592055,175.810000,327.616770L149.390000,328.454023C148.745622,328.472404,147.784378,328.472404,147.140000,328.454023L144.510000,328.358672C143.856374,328.339123,142.853626,328.339123,142.200000,328.358672L124.630000,329L80.780000,329"
                 dur="0.5s" calcMode="linear" begin="secondСloudTransform.end - 2.5s" fill="freeze" />
      </path>
    </g>
  </g>

  <!--   show window   -->
  <g opacity="0">
    <animate id="showWindowEnd" attributeType="CSS" attributeName="opacity" dur="0.5s"
             begin="airshipWindowOpacityEnd.end - 0.5s" from="0" to="1" fill="freeze" />
    <path
      d="M204.250000,231.880000L202.200000,231.880000C200.302433,231.891001,198.769968,233.432401,198.770000,235.330000L198.770000,238.250000C198.769968,240.147599,200.302433,241.688999,202.200000,241.700000L204.250000,241.700000C206.147567,241.688999,207.680032,240.147599,207.680000,238.250000L207.680000,235.330000C207.682656,234.417654,207.322773,233.541621,206.679523,232.894619C206.036272,232.247618,205.162346,231.882648,204.250000,231.880000Z"
      fill="none" stroke="#fff" stroke-linecap="round" stroke-linejoin="round" stroke-width="2">
      <animate attributeType="CSS" attributeName="opacity" dur="0.5s" begin="airshipWindowOpacityEnd.end - 0.5s"
               from="0" to="1" fill="freeze" />
      <animate attributeName="d"
               from="M204.250000,231.880000L202.200000,231.880000C200.302433,231.891001,198.769968,233.432401,198.770000,235.330000L198.770000,238.250000C198.769968,240.147599,200.302433,241.688999,202.200000,241.700000L204.250000,241.700000C206.147567,241.688999,207.680032,240.147599,207.680000,238.250000L207.680000,235.330000C207.682656,234.417654,207.322773,233.541621,206.679523,232.894619C206.036272,232.247618,205.162346,231.882648,204.250000,231.880000Z"
               to="M230.850396,231.880000L218.849518,231.880000C207.740994,231.961787,198.769813,243.421832,198.770000,257.530153L198.770000,279.239847C198.769813,293.348168,207.740994,304.808213,218.849518,304.890000L230.850396,304.890000C241.958920,304.808213,250.930101,293.348168,250.929915,279.239847L250.929915,257.530153C250.945463,250.747019,248.838678,244.233863,245.073033,239.423520C241.307388,234.613177,236.191349,231.899690,230.850396,231.880000Z"
               dur="0.5s" begin="airshipWindowOpacityEnd.end - 0.5s" fill="freeze" />
      <animateTransform attributeName="transform" type="translate" begin="airshipWindowOpacityEnd.end - 0.5s"
                        values="0 0; 42 -75" additive="sum" dur="0.5s" fill="freeze" />
    </path>
  </g>

  <!--   prize   -->
  <g id="firstPrize" opacity="0">
    <animate attributeType="CSS" attributeName="opacity" dur="2s" begin="showWindowEnd.end - 0.02s" from="0" to="1"
             fill="freeze" />
    <animateTransform id="secondСloudTransform" attributeName="transform" type="translate" from="-250" to="0"
                      begin="showWindowEnd.end - 0.02s" dur="0.5s" fill="freeze" />
    <!--   ski    -->

    <g opacity="0">
      <animate attributeType="CSS" attributeName="opacity" dur="0.05s" begin="showWindowEnd.end - 0.3s" from="0" to="1"
               fill="freeze" />
      <path
        d="M91.14,327.79a2.2,2.2,0,0,1-2-2.36l13.66-193.17c1.1-15.49-4.8-21.92-8.75-24.47a1.35,1.35,0,0,1,.53-2.45C103,104,122.18,104,120,134.19L106.43,326.67a2.2,2.2,0,0,1-2.35,2Z"
        fill="#fff" />
      <path
        d="M124.5,328.17a2.2,2.2,0,0,1-2.17-2.23l2.24-193.63c0.19-15.53-6.07-21.61-10.16-23.91a1.35,1.35,0,0,1,.39-2.47c8.36-1.9,27.49-3,27.15,27.28l-2.25,192.93a2.2,2.2,0,0,1-2.22,2.18Z"
        fill="#fff" />
    </g>
    <g>
      <path d="M257.5,259.82H196.76V245.63h55.09a9.92,9.92,0,0,1,9.9,9.93,4.26,4.26,0,0,1-4.25,4.25" fill="#a67ee5" />
      <path d="M257.5,259.82H196.76V245.63h55.09a9.92,9.92,0,0,1,9.9,9.93A4.26,4.26,0,0,1,257.5,259.82Z" fill="none"
            stroke="#fff" stroke-miterlimit="10" stroke-width="2" />
      <polygon points="185.47 328.31 171.5 328.31 165.19 286.72 179.16 286.72 185.47 328.31" fill="#a67ee5" />
      <polygon points="185.47 328.31 171.5 328.31 165.19 286.72 179.16 286.72 185.47 328.31" fill="none" stroke="#fff"
               stroke-miterlimit="10" stroke-width="2" />
      <polygon points="235.03 328.31 221.06 328.31 214.76 286.72 228.72 286.72 235.03 328.31" fill="#a67ee5" />
      <polygon points="235.03 328.31 221.06 328.31 214.76 286.72 228.72 286.72 235.03 328.31" fill="none" stroke="#fff"
               stroke-miterlimit="10" stroke-width="2" />
      <path
        d="M281.33,272.45H225.44a5.59,5.59,0,0,1-5.53-4.77l-10.86-72.24a17.71,17.71,0,0,0-12.49-31.31H141.48L141.16,267l15.77,23.35,47.19,8.39a12.3,12.3,0,0,0,4.22.75h73a13.53,13.53,0,0,0,0-27.06"
        fill="#a67ee5" />
      <path
        d="M281.33,272.45H225.44a5.59,5.59,0,0,1-5.53-4.77l-10.86-72.24a17.71,17.71,0,0,0-12.49-31.31H141.48L141.16,267l15.77,23.35,47.19,8.39a12.3,12.3,0,0,0,4.22.75h73A13.53,13.53,0,0,0,281.33,272.45Z"
        fill="none" stroke="#fff" stroke-miterlimit="10" stroke-width="2" />
      <path
        d="M162.42,267.69l-10.86-72.24a17.71,17.71,0,1,0-29-13.61,18,18,0,0,0,.79,5.25L138.65,289a12.36,12.36,0,0,0,12.21,10.54h73a13.53,13.53,0,0,0,0-27.05H167.95a5.62,5.62,0,0,1-5.53-4.78"
        fill="#a67ee5" />
      <path
        d="M162.42,267.69l-10.86-72.24a17.71,17.71,0,1,0-29-13.61,18,18,0,0,0,.79,5.25L138.65,289a12.36,12.36,0,0,0,12.21,10.54h73a13.53,13.53,0,0,0,0-27.05H167.95A5.62,5.62,0,0,1,162.42,267.69Z"
        fill="none" stroke="#fff" stroke-miterlimit="10" stroke-width="2" />
      <path d="M206.26,259.82h-72l-2.13-14.19H200.6a9.92,9.92,0,0,1,9.9,9.93,4.26,4.26,0,0,1-4.25,4.25"
            fill="#a67ee5" />
      <path d="M206.26,259.82h-72l-2.13-14.19H200.6a9.92,9.92,0,0,1,9.9,9.93A4.26,4.26,0,0,1,206.26,259.82Z" fill="none"
            stroke="#fff" stroke-miterlimit="10" stroke-width="2" />
      <line x1="151.57" y1="195.44" x2="209.05" y2="195.44" fill="none" stroke="#fff" stroke-linecap="round"
            stroke-miterlimit="10" stroke-width="2" />
    </g>

    <g>
      <line x1="72.03" y1="329" x2="295.52" y2="329" fill="none" stroke="#fff" stroke-linecap="round"
            stroke-miterlimit="10" stroke-width="2" />
    </g>

    <!--   grass    -->

    <g opacity="0">
      <animate attributeType="CSS" attributeName="opacity" dur="0.05s" begin="showWindowEnd.end - 0.8s" from="0" to="1"
               fill="freeze" />
      <animateTransform attributeType="XML" attributeName="transform" type="rotate"
                        values="0 110 393; 3 110 393; 0 110 393" dur="3.5s" begin="showWindowEnd.end - 2s" repeatCount="indefinite" />
      <path
        d="M79.18,194A131,131,0,0,1,94.77,220.9a255,255,0,0,1-20.08-23.55,259,259,0,0,1-17.07-25.88A131.72,131.72,0,0,1,79.18,194"
        fill="#36e69a">
      </path>
      <path
        d="M80.94,214.39a127.19,127.19,0,0,1,22.8,20.49A242.09,242.09,0,0,1,77.9,219.17a235.86,235.86,0,0,1-23.42-18.7,119.82,119.82,0,0,1,26.46,13.92"
        fill="#36e69a">
      </path>
      <path
        d="M93.66,205.48a258.38,258.38,0,0,0,10.08,29.39,125.63,125.63,0,0,0-4.5-30.52,135.9,135.9,0,0,0-12.06-29.44,260.33,260.33,0,0,0,6.47,30.57"
        fill="#36e69a">
      </path>
      <path
        d="M107.32,213.52a250.14,250.14,0,0,0,2.06,30.67,119.93,119.93,0,0,0,3.76-30.05,131.24,131.24,0,0,0-4-31.36,238.1,238.1,0,0,0-1.87,30.74"
        fill="#25b774" />
      <path
        d="M83.08,229.56a121.93,121.93,0,0,1,26.29,14.64A225.91,225.91,0,0,1,81.21,235a228.11,228.11,0,0,1-26.37-12.69,113.61,113.61,0,0,1,28.25,7.29"
        fill="#25b774" />
      <path
        d="M88.06,243.83A118.11,118.11,0,0,1,115.62,255a211,211,0,0,1-28.78-5.6,220.87,220.87,0,0,1-27.42-9.33,114,114,0,0,1,28.65,3.73"
        fill="#25b774" />
      <path
        d="M118.71,224.79a238,238,0,0,0-3.1,30.25,117.11,117.11,0,0,0,8.82-28.54,127.44,127.44,0,0,0,1.42-31.19,213.92,213.92,0,0,0-7.15,29.48"
        fill="#25b774" />
      <path
        d="M98.86,262a118.24,118.24,0,0,1,27.07,12.34,212.3,212.3,0,0,1-28.53-6.79,220.78,220.78,0,0,1-27-10.45A114.06,114.06,0,0,1,98.86,262"
        fill="#068e4d" />
      <path
        d="M130.27,244.29a236.56,236.56,0,0,0-4.34,30.1,116.94,116.94,0,0,0,10-28.16,127.42,127.42,0,0,0,2.71-31.1,214.43,214.43,0,0,0-8.36,29.16"
        fill="#068e4d" />
      <path
        d="M108.9,280.69a118.21,118.21,0,0,1,26.54,13.47,213.62,213.62,0,0,1-28.23-8,221.65,221.65,0,0,1-26.55-11.57,113.82,113.82,0,0,1,28.24,6.08"
        fill="#068e4d" />
      <path
        d="M141,264.26a236.09,236.09,0,0,0-5.58,29.9,117.46,117.46,0,0,0,11.15-27.73,127.2,127.2,0,0,0,4-31A214.24,214.24,0,0,0,141,264.26"
        fill="#068e4d" />
      <path d="M92.62,217.67A529.26,529.26,0,0,1,149.48,328" fill="none" stroke="#36e69a" stroke-linecap="round"
            stroke-linejoin="round" stroke-width="2" />
    </g>
  </g>

  <g opacity="0">
    <animate attributeType="CSS" attributeName="opacity" dur="0.5s" begin="showWindowEnd.end" from="0" to="1"
             fill="freeze" />

    <!--    clouds    -->
    <g>
      <defs>
        <clipPath id="window">
          <path
            d="M275,225.43H257.87a17.6,17.6,0,0,1-17.52-17.58V170a17.6,17.6,0,0,1,17.52-17.58H275A17.6,17.6,0,0,1,292.51,170v37.83A17.61,17.61,0,0,1,275,225.43Z" />
        </clipPath>

      </defs>
      <g clip-path="url(#window)">
        <g transform="scale(0.4) translate(520 370)" opacity="0.9">
          <animateTransform id="showCloudsEnd" attributeName="transform" type="translate" begin="showWindowEnd.end"
                            from="80 0" to="-250, 0" dur="2.3s" additive="sum" repeatCount="indefinite" />
          <line x1="278.96" y1="93.19" x2="298.74" y2="93.19" fill="none" stroke="#fff" stroke-linecap="round"
                stroke-miterlimit="10" stroke-width="4" />
          <path d="M278.75,82.91H251.39a12.4,12.4,0,1,0-24.8,0H208.65" fill="none" stroke="#fff" stroke-linecap="round"
                stroke-miterlimit="10" stroke-width="4" />
          <line x1="287.01" y1="82.91" x2="309.21" y2="82.91" fill="none" stroke="#fff" stroke-linecap="round"
                stroke-miterlimit="10" stroke-width="4" />
        </g>
        <g transform="scale(0.4) translate(520 410)" opacity="0.9">
          <animateTransform id="showCloudsEnd" attributeName="transform" type="translate"
                            begin="showWindowEnd.end - 1.5s" from="130 0" to="-250, 0" dur="2.4s" additive="sum"
                            repeatCount="indefinite" />
          <line x1="265.96" y1="93.19" x2="235.74" y2="93.19" fill="none" stroke="#fff" stroke-linecap="round"
                stroke-miterlimit="10" stroke-width="4" />
          <path d="M278.75,82.91H251.39a12.4,12.4,0,1,0-24.8,0H208.65" fill="none" stroke="#fff" stroke-linecap="round"
                stroke-miterlimit="10" stroke-width="4" />
        </g>
      </g>
    </g>
  </g>
</svg>
