<svg xmlns="http://www.w3.org/2000/svg" viewBox="-14 0 350 330" >
  <g>
    <path
      d="M263.47,206.82a2,2,0,0,1,3.15,2c-1,7-2.07,20.33,4.85,19.4,4.94-.66-16.65-31.53,19.32-38.16a2,2,0,0,1,2.18,2.89c-1.32,2.74-2.83,6.61-2.73,9.9a2,2,0,0,0,3.71,1c4.1-6.15,15.1-17.86,36.59-10.7a2,2,0,0,1,1.35,1.54c0.93,4.8,4.13,23.24-.29,28.72-5.09,6.31-15,4.14-16.18,10.25-1.3,6.91,7.51,4.82,13.42-.22a2,2,0,0,1,3.32,1.64c-0.25,5.45-2.18,14-11.12,18.69-13.78,7.21-23.48-7-25.19-3.88-2.59,4.66,7.94,8.47,13.78,10.18a2,2,0,0,1,.61,3.59c-10.52,7.74-29.13,10.28-37-5.41-8.3-16.59-12.93-12.49-18.19-20.38-5.71-8.57-4.33-22.54,8.38-31.05m29.4,32.47c0.5,2.73,5.2,3.51,8.35,2.94s8.47-3.83,8-6.56-6.62-3.9-9.78-3.33-7.05,4.22-6.55,6.95"
      fill="#e81a5a">
      <animateTransform attributeType="XML" attributeName="transform" type="rotate" repeatCount="indefinite"
        values="0 260 230; 5 260 230; 0 260 230" dur="1.5s" />
    </path>
    <path d="M263,327.88s-4.91-70.27,5.54-80.72" fill="none" stroke="#e81a5a" stroke-miterlimit="10" stroke-width="2" />
  </g>

  <!-- suitcase with parachute -->
  <g>
    <g id="suitcaseWithParachute" opacity="0" transform="translate(-220, -275)">
      <!--  suitcase   -->
      <g id="suitcase">
        <path d="M251.89,328.88a3.54,3.54,0,0,0,3.53-3.53v-5.07a3.53,3.53,0,1,0-7.06,0v5.07a3.55,3.55,0,0,0,3.53,3.53"
          fill="#a67ee5" />
        <path
          d="M251.89,328.88a3.54,3.54,0,0,0,3.53-3.53v-5.07a3.53,3.53,0,1,0-7.06,0v5.07A3.55,3.55,0,0,0,251.89,328.88Z"
          fill="none" stroke="#fff" stroke-miterlimit="10" stroke-width="2" />
        <path d="M176.35,328.88a3.54,3.54,0,0,0,3.53-3.53v-5.07a3.53,3.53,0,1,0-7.06,0v5.07a3.54,3.54,0,0,0,3.53,3.53"
          fill="#a67ee5" />
        <path
          d="M176.35,328.88a3.54,3.54,0,0,0,3.53-3.53v-5.07a3.53,3.53,0,1,0-7.06,0v5.07A3.54,3.54,0,0,0,176.35,328.88Z"
          fill="none" stroke="#fff" stroke-miterlimit="10" stroke-width="2" />
        <path
          d="M170.92,320.29h74.5a11.38,11.38,0,0,0,11.35-11.35V242.86a11.38,11.38,0,0,0-11.35-11.35h-74.5a11.38,11.38,0,0,0-11.35,11.35v66.08a11.38,11.38,0,0,0,11.35,11.35"
          fill="#a67ee5" />
        <rect x="159.57" y="231.51" width="97.2" height="88.78" rx="11.35" ry="11.35" fill="none" stroke="#fff"
          stroke-miterlimit="10" stroke-width="2" />
        <path
          d="M199.26,219.15h32.4a4.09,4.09,0,0,1,4.08,4.08v16a1.19,1.19,0,0,1-1.19,1.19h-2.7a1.19,1.19,0,0,1-1.19-1.19V224.86a1.27,1.27,0,0,0-1.27-1.27H201.53a1.27,1.27,0,0,0-1.27,1.27v14.38a1.19,1.19,0,0,1-1.19,1.19h-2.7a1.19,1.19,0,0,1-1.19-1.19v-16a4.1,4.1,0,0,1,4.09-4.08"
          fill="#a67ee5" />
        <path
          d="M199.26,219.15h32.4a4.09,4.09,0,0,1,4.08,4.08v16a1.19,1.19,0,0,1-1.19,1.19h-2.7a1.19,1.19,0,0,1-1.19-1.19V224.86a1.27,1.27,0,0,0-1.27-1.27H201.53a1.27,1.27,0,0,0-1.27,1.27v14.38a1.19,1.19,0,0,1-1.19,1.19h-2.7a1.19,1.19,0,0,1-1.19-1.19v-16A4.1,4.1,0,0,1,199.26,219.15Z"
          fill="none" stroke="#fff" stroke-miterlimit="10" stroke-width="2" />
        <path
          d="M185.34,320.29h74.5a11.38,11.38,0,0,0,11.35-11.35V242.86a11.38,11.38,0,0,0-11.35-11.35h-74.5A11.38,11.38,0,0,0,174,242.86v66.08a11.39,11.39,0,0,0,11.35,11.35"
          fill="#a67ee5" />
        <path
          d="M185.34,320.29h74.5a11.38,11.38,0,0,0,11.35-11.35V242.86a11.38,11.38,0,0,0-11.35-11.35h-74.5A11.38,11.38,0,0,0,174,242.86v66.08A11.39,11.39,0,0,0,185.34,320.29Z"
          fill="none" stroke="#fff" stroke-miterlimit="10" stroke-width="2" />
        <line x1="254.22" y1="252.43" x2="190.97" y2="252.43" fill="none" stroke="#fff" stroke-linecap="round"
          stroke-miterlimit="10" stroke-width="2" />
        <line x1="254.22" y1="275.9" x2="190.97" y2="275.9" fill="none" stroke="#fff" stroke-linecap="round"
          stroke-miterlimit="10" stroke-width="2" />
        <line x1="254.22" y1="299.38" x2="190.97" y2="299.38" fill="none" stroke="#fff" stroke-linecap="round"
          stroke-miterlimit="10" stroke-width="2" />
        <path d="M168.12,253.68h0.67v44.46h-0.67a3.53,3.53,0,0,1-3.52-3.51V257.2a3.52,3.52,0,0,1,3.52-3.52"
          fill="#a67ee5" />
        <path d="M168.12,253.68h0.67v44.46h-0.67a3.53,3.53,0,0,1-3.52-3.51V257.2A3.52,3.52,0,0,1,168.12,253.68Z"
          fill="none" stroke="#fff" stroke-miterlimit="10" stroke-width="2" />
      </g>

      <!--  parachute   -->
      <g id="parachute">
        <line x1="215.46" y1="218.86" x2="159.87" y2="139.03" fill="none" stroke="#fff" stroke-linecap="round"
          stroke-linejoin="round" stroke-width="2" />
        <line x1="215.46" y1="218.86" x2="196.93" y2="139.03" fill="none" stroke="#fff" stroke-linecap="round"
          stroke-linejoin="round" stroke-width="2" />
        <line x1="233.99" y1="139.03" x2="215.46" y2="218.86" fill="none" stroke="#fff" stroke-linecap="round"
          stroke-linejoin="round" stroke-width="2" />
        <line x1="271.04" y1="139.03" x2="215.46" y2="218.86" fill="none" stroke="#fff" stroke-linecap="round"
          stroke-linejoin="round" stroke-width="2" />
        <path
          d="M215.46,83.44A55.58,55.58,0,0,1,271,139c0-6.76-8.3-12.25-18.53-12.25s-18.31,5.35-18.52,12c0,0.08,0,.17,0,0.26,0-6.76-8.3-12.25-18.53-12.25s-18.54,5.49-18.54,12.25c0-.09,0-0.17,0-0.26-0.22-6.64-8.42-12-18.52-12s-18.52,5.49-18.52,12.25a55.58,55.58,0,0,1,55.59-55.59m0-1.66A57.31,57.31,0,0,0,158.22,139a1.66,1.66,0,1,0,3.32,0c0-5.84,7.57-10.59,16.87-10.59,9.11,0,16.68,4.66,16.86,10.38V139a1.66,1.66,0,0,0,3.32,0c0-5.84,7.57-10.59,16.87-10.59s16.87,4.75,16.87,10.59a1.66,1.66,0,0,0,3.32,0v-0.21c0.18-5.73,7.74-10.39,16.86-10.39,9.3,0,16.87,4.75,16.87,10.59a1.66,1.66,0,1,0,3.32,0,57.3,57.3,0,0,0-57.23-57.25"
          fill="#fff" />
        <path
          d="M215.46,83.44c9.92,0,18,20.9,18.54,55.33,0.21-6.65,8.41-12,18.52-12S271,132.27,271,139a55.59,55.59,0,0,0-55.59-55.59"
          fill="#e81a5a" />
        <path
          d="M215.45,83.44A55.58,55.58,0,0,0,159.87,139c0-6.76,8.3-12.25,18.52-12.25s18.3,5.35,18.52,12c0.52-34.43,8.61-55.32,18.53-55.32"
          fill="#fe6183" />
        <path
          d="M215.46,83.44c-9.93,0-18,20.9-18.54,55.32,0,0.09,0,.17,0,0.26,0-6.76,8.3-12.25,18.53-12.25S234,132.27,234,139c0-.09,0-0.17,0-0.26-0.51-34.43-8.6-55.33-18.52-55.33"
          fill="#f7396b" />
      </g>
      <animateTransform begin="clouds.end" attributeType="XML" attributeName="transform" type="rotate"
        values="30; -30; 20; 18.29; -6.48; 0" dur="3s" fill="freeze" additive="sum" />
      <animate begin="clouds.end" attributeType="CSS" attributeName="opacity" from="0" to="1" dur="0.01s"
        fill="freeze" />
    </g>
    <animateTransform begin="clouds.end" attributeName="transform" type="scale" from="0" to="1" dur="3s" fill="freeze"
      additive="sum" />
    <animateMotion begin="clouds.end" dur="3s" fill="freeze"
      path="M179,111c24.19-9.24,29.8-15.84,29.42-20.44C207.18,75.43,138.73,51.78,96,84c-2.93,2.21-31.66,24.52-29,54,3.54,39.18,59.83,61.15,75.7,67.35,53.65,20.94,94.43,8.79,101.78,27.18,2.89,7.25.78,19.69-21.48,42.47">
    </animateMotion>
  </g>

  <!--  clouds   -->
  <g opacity="0">
    <g>
      <line x1="65.43" y1="77.72" x2="105.21" y2="77.72" fill="none" stroke="#fff" stroke-linecap="round"
        stroke-miterlimit="10" stroke-width="2" />
      <path d="M85.22,67.45H57.86a12.4,12.4,0,1,0-24.8,0H15.13" fill="none" stroke="#fff" stroke-linecap="round"
        stroke-miterlimit="10" stroke-width="2" />
      <line x1="93.48" y1="67.45" x2="115.68" y2="67.45" fill="none" stroke="#fff" stroke-linecap="round"
        stroke-miterlimit="10" stroke-width="2" />
    </g>
    <line x1="272.13" y1="145.27" x2="311.9" y2="145.27" fill="none" stroke="#fff" stroke-linecap="round"
      stroke-miterlimit="10" stroke-width="2" />
    <line x1="300.17" y1="135" x2="322.37" y2="135" fill="none" stroke="#fff" stroke-linecap="round"
      stroke-miterlimit="10" stroke-width="2" />
    <g>
      <path
        d="M235.770000,119L216.320000,119C216.067830,102.302633,204.209282,88.039826,187.838480,84.743998C171.467677,81.448170,155.013788,90.011018,148.320000,105.310000C144.377487,103.121523,139.939159,101.981813,135.430000,102C124.456839,102.036720,114.621695,108.778553,110.630000,119L95.480000,119C89.681010,119,84.980000,123.701010,84.980000,129.500000C84.980000,135.298990,89.681010,140,95.480000,140L235.780000,140C241.578990,140,246.280000,135.298990,246.280000,129.500000C246.280000,123.701010,241.578990,119,235.780000,119"
        fill="#fff" />
    </g>
    <animate id="clouds" attributeType="CSS" attributeName="opacity" from="0" to="1" dur="1s" fill="freeze" />
    <animateTransform id="clouds" attributeType="XML" attributeName="transform" type="translate" values="250; 0"
      fill="freeze" calcMode="spline" keySplines="0.4 0 0.2 1" dur="1s" />
    <animate begin="clouds.end + 1s" attributeType="CSS" attributeName="opacity" from="1" to="0" dur="1s"
      fill="freeze" />
    <animateTransform begin="clouds.end + 1s" attributeType="XML" attributeName="transform" type="translate" to="0, -50"
      fill="freeze" dur="1s" />
  </g>

  <!--  little leaf    -->
  <g>
    <path
      d="M322.920000,283.400000C323.497215,283.962122,323.709784,284.800805,323.470000,285.570000C322.410000,289,318.890000,298.420000,311.370000,301.910000C306.240000,304.290000,303.040000,299.210000,300.450000,302.680000C297.860000,306.150000,302.550000,307.680000,307.370000,306.990000C308.220871,306.850399,309.073257,307.230211,309.538424,307.956219C310.003591,308.682228,309.992418,309.615338,309.510000,310.330000C306.955679,314.368995,302.557150,316.870118,297.780000,317C286.940000,317.270000,285.230000,305.420000,283.210000,306.810000C280.490000,308.700000,284.480000,313.360000,287.600000,316.380000C288.210779,316.965845,288.423148,317.854419,288.143277,318.653129C287.863405,319.451839,287.142862,320.013517,286.300000,320.090000C277.540000,320.930000,266.580000,316.580000,266.500000,305.090000C266.420000,292.150000,262.250000,293.290000,261.390000,286.740000C260.480000,279.860000,265.270000,271.860000,275.130000,270.050000C275.938891,269.902413,276.761423,270.226881,277.251708,270.886963C277.741994,271.547044,277.814990,272.428242,277.440000,273.160000C275.030000,277.890000,271.440000,285.760000,274.620000,285.720000C278.080000,285.720000,273.040000,263.140000,303.050000,270.460000C303.786520,270.641709,304.373730,271.196471,304.596969,271.921484C304.820207,272.646497,304.646747,273.435477,304.140000,274L304.040000,274.110000C303.367363,274.856728,303.298615,275.968713,303.874149,276.792609C304.449682,277.616505,305.517414,277.934601,306.450000,277.560000C310.110000,276.040000,315.610000,276.290000,322.920000,283.400000"
      fill="#fe6183" />
    <path d="M245.13,327.88s3.48-30.11,21.7-30.11" fill="none" stroke="#fe6183" stroke-miterlimit="10"
      stroke-width="2" />
    <animateTransform id="littleLeaf" attributeType="XML" attributeName="transform" type="rotate"
      begin="1s; littleLeaf.end + 0.5s"
      values="0 245.13 327.88; 4 245.13 327.88; -4 245.13 327.88; 2 245.13 327.88; 0 245.13 327.88" dur="1.7s" />
  </g>

  <!--   bottom line   -->
  <g>
    <path d="M10.437743,329L54.631317,329" fill="none" stroke="#fff" stroke-linecap="round" stroke-width="2">
      <animate attributeName="d"
        values="M10.437743,329L54.631317,329; M10.437743,329L333.881133,329;M130.181362,329L333.881133,329" dur="1s"
        calcMode="spline" keySplines="0.4 0 0.2 1;0.4 0 0.2 1" fill="freeze" />
    </path>
  </g>
</svg>
